<svg xmlns="http://www.w3.org/2000/svg" xmlns:xlink="http://www.w3.org/1999/xlink" fill="none" version="1.1" width="48" height="48" viewBox="0 0 48 48"><g><g><path d="M27.523935546875,7.476150517578125C29.867135546875,5.133000517578125,33.666135546875,5.133000517578125,36.009235546875,7.476150517578125L45.201635546875,16.668580517578125C47.544735546875,19.011680517578124,47.544735546875,22.810680517578124,45.201635546875,25.153780517578124L41.666135546875,28.689380517578126L40.607435546875,29.754480517578124L38.341335546875,32.014180517578126L37.806335546875,32.54918051757812C37.691235546875,32.68698051757812,37.568935546875,32.82078051757813,37.439535546875,32.95028051757812L28.247135546875,42.142580517578125C25.903935546875,44.48578051757813,22.104935546875,44.48578051757813,19.761835546875,42.142580517578125L2.7912855468749997,25.172080517578124C0.448130546875,22.828880517578124,0.448130546875,19.029880517578125,2.7912855468749997,16.686780517578125L11.983635546875,7.494400517578125C14.326835546875,5.151251517578125,18.125835546875,5.151251517578125,20.468935546875,7.494400517578125L23.987335546875,11.012790517578125L27.523935546875,7.476150517578125ZM26.108635546875,13.134130517578125L19.050135546875,20.192680517578125C17.977335546875,21.265480517578126,17.975735546875,21.969480517578123,19.038735546875,23.032480517578126C20.312535546875,24.306280517578124,21.933135546875,24.851280517578125,23.945435546875,24.087980517578124C24.801335546875,23.763380517578124,26.294435546875,22.650780517578124,28.299835546875,20.782980517578125C28.516335546875,20.581080517578123,28.749535546875,20.407680517578125,28.994635546875,20.262680517578126C30.501735546875,19.371580517578124,32.460135546875,19.557080517578125,33.775935546875,20.801380517578124C33.802535546875,20.826480517578126,33.828735546875,20.852080517578123,33.854835546875,20.877980517578123L39.544835546875,26.568080517578124L43.080335546875,23.032480517578126C44.210135546875,21.902780517578126,44.250435546875,20.096180517578127,43.201435546875,18.918080517578126L43.080335546875,18.789880517578126L33.887935546875,9.597470517578126C32.716435546875005,8.425900517578125,30.816935546875,8.425900517578125,29.645335546875,9.597470517578126L26.108635546875,13.134130517578125ZM31.694035546875,22.962080517578126C31.339435546875,22.645080517578126,30.811535546875,22.623880517578126,30.432935546875,22.904480517578126L30.345235546875,22.977580517578126C28.070235546875,25.096480517578126,26.332935546875,26.390880517578125,25.009335546875,26.892980517578124C21.749735546875,28.129380517578124,18.952235546875,27.188680517578124,16.917335546875,25.153780517578124C14.680535546875,22.916980517578125,14.686535546875,20.313580517578124,16.928835546875,18.071280517578124L21.866035546875,13.134120517578125L18.347535546875,9.615680517578125C17.176035546875,8.444110517578125,15.276535546875,8.444110517578125,14.104935546875,9.615680517578125L4.912545546875,18.808080517578126C3.740965546875,19.979680517578124,3.740965546875,21.879180517578124,4.912545546875,23.050680517578126L21.883135546875,40.02128051757813C23.054635546875,41.192880517578125,24.954135546875,41.192880517578125,26.125735546875,40.02128051757813L27.186435546875,38.960680517578126L23.650935546875,35.425080517578124C23.065135546875,34.839280517578125,23.065135546875,33.889580517578125,23.650935546875,33.303780517578126C23.932235546875,33.022480517578124,24.313735546875,32.86448051757813,24.711635546875,32.86448051757813C25.109435546875,32.86448051757813,25.490935546875,33.022480517578124,25.772235546875,33.303780517578126L29.307735546875,36.839280517578125L32.136135546874996,34.01088051757813L28.600735546875,30.475380517578124C28.014935546875,29.889580517578125,28.014935546875,28.939880517578125,28.600735546875,28.354080517578126C28.882035546875,28.072780517578124,29.263535546875,27.914680517578127,29.661335546875,27.914680517578127C30.059135546875,27.914680517578127,30.440735546875,28.072780517578124,30.722035546875,28.354080517578126L34.257535546875,31.889480517578125L35.318135546875,30.828880517578124C36.489735546875,29.657280517578126,36.489735546875,27.757780517578126,35.318135546875,26.586280517578125L31.694035546875,22.962080517578126Z" fill="#000000" fill-opacity="1"/></g></g></svg>