<svg xmlns="http://www.w3.org/2000/svg" xmlns:xlink="http://www.w3.org/1999/xlink" fill="none" version="1.1" width="68" height="68" viewBox="0 0 68 68"><g><g><path d="M31.875048046875,16.2916259765625L31.875048046875,23.3749259765625C31.875048046875,28.0693259765625,28.069448046875,31.8749259765625,23.375048046875,31.8749259765625L16.291748046875,31.8749259765625C11.597328046874999,31.8749259765625,7.791748046875,28.0693259765625,7.791748046875,23.3749259765625L7.791748046875,16.2916259765625C7.791748046875,11.597205976562499,11.597328046874999,7.7916259765625,16.291748046875,7.7916259765625L23.375048046875,7.7916259765625C28.069448046875,7.7916259765625,31.875048046875,11.597205976562499,31.875048046875,16.2916259765625ZM60.208448046875,16.2916259765625L60.208448046875,23.3749259765625C60.208448046875,28.0693259765625,56.402848046875,31.8749259765625,51.708448046875,31.8749259765625L44.625048046875,31.8749259765625C39.930648046875,31.8749259765625,36.125048046875,28.0693259765625,36.125048046875,23.3749259765625L36.125048046875,16.2916259765625C36.125048046875,11.597205976562499,39.930648046875,7.7916259765625,44.625048046875,7.7916259765625L51.708448046875,7.7916259765625C56.402848046875,7.7916259765625,60.208448046875,11.597205976562499,60.208448046875,16.2916259765625ZM16.291748046875,12.0416259765625C13.944548046875,12.0416259765625,12.041748046875,13.9444259765625,12.041748046875,16.2916259765625L12.041748046875,23.3749259765625C12.041748046875,25.7222259765625,13.944548046875,27.6249259765625,16.291748046875,27.6249259765625L23.375048046875,27.6249259765625C25.722348046875,27.6249259765625,27.625048046875,25.7222259765625,27.625048046875,23.3749259765625L27.625048046875,16.2916259765625C27.625048046875,13.9444259765625,25.722348046875,12.0416259765625,23.375048046875,12.0416259765625L16.291748046875,12.0416259765625ZM44.625048046875,12.0416259765625C42.277848046875,12.0416259765625,40.375048046875,13.9444259765625,40.375048046875,16.2916259765625L40.375048046875,23.3749259765625C40.375048046875,25.7222259765625,42.277848046875,27.6249259765625,44.625048046875,27.6249259765625L51.708448046875,27.6249259765625C54.055648046875,27.6249259765625,55.958448046875,25.7222259765625,55.958448046875,23.3749259765625L55.958448046875,16.2916259765625C55.958448046875,13.9444259765625,54.055648046875,12.0416259765625,51.708448046875,12.0416259765625L44.625048046875,12.0416259765625ZM31.875048046875,44.6249259765625L31.875048046875,51.7083259765625C31.875048046875,56.4027259765625,28.069448046875,60.2083259765625,23.375048046875,60.2083259765625L16.291748046875,60.2083259765625C11.597328046874999,60.2083259765625,7.791748046875,56.4027259765625,7.791748046875,51.7083259765625L7.791748046875,44.6249259765625C7.791748046875,39.9305259765625,11.597328046874999,36.1249259765625,16.291748046875,36.1249259765625L23.375048046875,36.1249259765625C28.069448046875,36.1249259765625,31.875048046875,39.9305259765625,31.875048046875,44.6249259765625ZM41.791748046875,57.3749259765625C41.791748046875,58.5485259765625,40.840348046875,59.4999259765625,39.666748046875,59.4999259765625C38.493148046875,59.4999259765625,37.541748046875,58.5485259765625,37.541748046875,57.3749259765625L37.541748046875,38.9583259765625C37.541748046875,37.7847259765625,38.493148046875,36.8333259765625,39.666748046875,36.8333259765625C40.840348046875,36.8333259765625,41.791748046875,37.7847259765625,41.791748046875,38.9583259765625L41.791748046875,57.3749259765625ZM50.291748046875,43.2083259765625C50.291748046875,44.3818259765625,49.340348046875,45.3333259765625,48.166748046875,45.3333259765625C46.993148046875,45.3333259765625,46.041748046875,44.3818259765625,46.041748046875,43.2083259765625L46.041748046875,38.9583259765625C46.041748046875,37.7847259765625,46.993148046875,36.8333259765625,48.166748046875,36.8333259765625C49.340348046875,36.8333259765625,50.291748046875,37.7847259765625,50.291748046875,38.9583259765625L50.291748046875,43.2083259765625ZM58.791748046875,57.3749259765625C58.791748046875,58.5485259765625,57.840348046875,59.4999259765625,56.666748046875,59.4999259765625C55.493148046875,59.4999259765625,54.541748046875,58.5485259765625,54.541748046875,57.3749259765625L54.541748046875,38.9583259765625C54.541748046875,37.7847259765625,55.493148046875,36.8333259765625,56.666748046875,36.8333259765625C57.840348046875,36.8333259765625,58.791748046875,37.7847259765625,58.791748046875,38.9583259765625L58.791748046875,57.3749259765625ZM16.291748046875,40.3749259765625C13.944548046875,40.3749259765625,12.041748046875,42.2777259765625,12.041748046875,44.6249259765625L12.041748046875,51.7083259765625C12.041748046875,54.0555259765625,13.944548046875,55.9583259765625,16.291748046875,55.9583259765625L23.375048046875,55.9583259765625C25.722348046875,55.9583259765625,27.625048046875,54.0555259765625,27.625048046875,51.7083259765625L27.625048046875,44.6249259765625C27.625048046875,42.2777259765625,25.722348046875,40.3749259765625,23.375048046875,40.3749259765625L16.291748046875,40.3749259765625ZM50.291748046875,57.3749259765625C50.291748046875,58.5485259765625,49.340348046875,59.4999259765625,48.166748046875,59.4999259765625C46.993148046875,59.4999259765625,46.041748046875,58.5485259765625,46.041748046875,57.3749259765625L46.041748046875,53.1249259765625C46.041748046875,51.9514259765625,46.993148046875,50.9999259765625,48.166748046875,50.9999259765625C49.340348046875,50.9999259765625,50.291748046875,51.9514259765625,50.291748046875,53.1249259765625L50.291748046875,57.3749259765625Z" fill="#000000" fill-opacity="1"/></g></g></svg>