<svg xmlns="http://www.w3.org/2000/svg" xmlns:xlink="http://www.w3.org/1999/xlink" fill="none" version="1.1" width="68" height="68" viewBox="0 0 68 68"><g><g><path d="M34.000048046875,6.375C45.682648046875,6.375,55.530248046875,14.23115,58.548248046875,24.9486C61.923148046875,25.653,64.45844804687499,28.645,64.45844804687499,32.2292L64.45844804687499,39.3125C64.45844804687499,43.3661,61.215348046875,46.6623,57.182448046875,46.7483C53.374148046875,55.0296,45.243748046875,60.9474,35.585448046875,61.5328L34.128548046875,61.6212C32.957148046875005,61.6921,31.950048046875,60.8001,31.878948046875,59.6285C31.807948046875,58.457,32.700048046875,57.4499,33.871548046875,57.3788L35.328348046875,57.2906C43.133848046875,56.8175,49.741548046875,52.1635,53.025748046875,45.5869C50.956048046875,44.2663,49.583448046875,41.9498,49.583448046875,39.3125L49.583448046875,32.2292C49.583448046875,29.1105,51.502848046875,26.4402,54.224648046875,25.3352C51.466548046875,16.7991,43.454348046875,10.62499,34.000048046875,10.62499C24.545848046875,10.62499,16.533648046875,16.7991,13.775448046875,25.3352C16.497348046875,26.4402,18.416748046875,29.1105,18.416748046875,32.2292L18.416748046875,39.3125C18.416748046875,43.4201,15.086848046875,46.75,10.979238046875,46.75C6.871628046875,46.75,3.541742642725,43.4201,3.541742642725,39.3125L3.541742642725,32.2292C3.541742642725,28.645,6.076998046875,25.653,9.452008046875001,24.9486C12.469898046875,14.23115,22.317548046875,6.37499459585,34.000048046875,6.375ZM14.166748046875,32.2292C14.166748046875,30.4688,12.739658046875,29.0417,10.979248046875,29.0417C9.218838046875,29.0417,7.791748046875,30.4688,7.791748046875,32.2292L7.791748046875,39.3125C7.791748046875,41.0728,9.218838046875,42.5,10.979248046875,42.5C12.739658046875,42.5,14.166748046875,41.0728,14.166748046875,39.3125L14.166748046875,32.2292ZM60.208448046875,32.2292C60.208448046875,30.4688,58.781248046875,29.0417,57.020948046875,29.0417C55.260548046875,29.0417,53.833448046875,30.4688,53.833448046875,32.2292L53.833448046875,39.3125C53.833448046875,41.0728,55.260548046875,42.5,57.020948046875,42.5C58.781248046875,42.5,60.208448046875,41.0728,60.208448046875,39.3125L60.208448046875,32.2292ZM34.000048046875,43.9165C36.265648046875,43.9165,38.369548046875,42.9471,39.841248046875,41.2817C40.618448046875,40.4022,41.961348046875,40.3193,42.840748046875,41.0965C43.720248046875,41.8737,43.803148046875,43.2166,43.025948046875,44.096C40.755748046875,46.665,37.496848046875,48.1665,34.000048046875,48.1665C30.501648046875,48.1665,27.241148046875,46.6634,24.970948046875,44.0922C24.194148046875,43.2124,24.277648046875,41.8696,25.157348046875,41.0928C26.037148046875,40.3161,27.379948046875,40.3995,28.156748046875,41.2793C29.628548046875,42.9461,31.733448046875,43.9165,34.000048046875,43.9165Z" fill="#000000" fill-opacity="1"/></g></g></svg>