<svg xmlns="http://www.w3.org/2000/svg" xmlns:xlink="http://www.w3.org/1999/xlink" fill="none" version="1.1" width="68" height="68" viewBox="0 0 68 68"><g><g><path d="M55.385548046875,12.2403159765625L58.495848046875,17.9770259765625C59.619748046875,20.0502259765625,60.208448046875,22.3711259765625,60.208448046875,24.7293259765625L60.208448046875,51.7083259765625C60.208448046875,56.4027259765625,56.402848046875,60.2083259765625,51.708448046875,60.2083259765625L16.291748046875,60.2083259765625C11.597328046874999,60.2083259765625,7.791748046875,56.4027259765625,7.791748046875,51.7083259765625L7.791748046875,24.7293259765625C7.791748046875,22.3711259765625,8.380430046875,20.0502259765625,9.504398046875,17.9770259765625L12.614688046875,12.2403159765625C14.100928046875,9.4990359765625,16.968848046875,7.7916249632825,20.087048046874997,7.7916249632825L47.913048046875,7.7916249632825C51.031248046875,7.7916249632825,53.899248046875,9.4990359765625,55.385548046875,12.2403159765625ZM31.875048046875,12.0416259765625L20.087048046874997,12.0416259765625C18.527948046875,12.0416259765625,17.094008046875,12.8953359765625,16.350898046875002,14.265975976562501L13.332478046875,19.8333259765625L31.875048046875,19.8333259765625L31.875048046875,12.0416259765625ZM12.062818046875,24.0833259765625C12.048788046875,24.2979259765625,12.041748046875,24.5134259765625,12.041748046875,24.7293259765625L12.041748046875,51.7083259765625C12.041748046875,54.0555259765625,13.944548046875,55.9583259765625,16.291748046875,55.9583259765625L51.708448046875,55.9583259765625C54.055648046875,55.9583259765625,55.958448046875,54.0555259765625,55.958448046875,51.7083259765625L55.958448046875,24.7293259765625C55.958448046875,24.5134259765625,55.951348046875,24.2979259765625,55.937348046875,24.0833259765625L12.062818046875,24.0833259765625ZM54.667648046875,19.8333259765625L51.649348046875,14.265975976562501C50.906148046875,12.8953359765625,49.472248046875,12.0416259765625,47.913048046875,12.0416259765625L36.125048046875,12.0416259765625L36.125048046875,19.8333259765625L54.667648046875,19.8333259765625ZM29.750048046875,33.9999259765625C29.750048046875,35.5648259765625,28.481548046875,36.8333259765625,26.916748046875,36.8333259765625C25.351948046875,36.8333259765625,24.083448046875,35.5648259765625,24.083448046875,33.9999259765625C24.083448046875,32.4351259765625,25.351948046875,31.1666259765625,26.916748046875,31.1666259765625C28.481548046875,31.1666259765625,29.750048046875,32.4351259765625,29.750048046875,33.9999259765625ZM43.916748046875,33.9999259765625C43.916748046875,35.5648259765625,42.648248046875,36.8333259765625,41.083448046875,36.8333259765625C39.518548046875,36.8333259765625,38.250048046875,35.5648259765625,38.250048046875,33.9999259765625C38.250048046875,32.4351259765625,39.518548046875,31.1666259765625,41.083448046875,31.1666259765625C42.648248046875,31.1666259765625,43.916748046875,32.4351259765625,43.916748046875,33.9999259765625ZM34.000048046875,44.6249259765625C36.677148046875004,44.6249259765625,39.164148046875,43.4790259765625,40.903248046875,41.5111259765625C41.680248046875,40.6316259765625,43.023248046875,40.5488259765625,43.902748046875,41.3259259765625C44.782048046875,42.1031259765625,44.865048046875,43.4460259765625,44.087848046875,44.3254259765625C41.550448046875,47.1969259765625,37.908348046875,48.8749259765625,34.000048046875,48.8749259765625C30.089748046875,48.8749259765625,26.446148046875,47.1952259765625,23.908548046875,44.3212259765625C23.131848046875,43.4414259765625,23.215248046875,42.0986259765625,24.095048046875,41.3218259765625C24.974748046875,40.5451259765625,26.317648046875,40.6285259765625,27.094348046875,41.5083259765625C28.833448046875,43.4779259765625,31.321548046875,44.6249259765625,34.000048046875,44.6249259765625Z" fill="#000000" fill-opacity="1"/></g></g></svg>