<svg xmlns="http://www.w3.org/2000/svg" xmlns:xlink="http://www.w3.org/1999/xlink" fill="none" version="1.1" width="68" height="68" viewBox="0 0 68 68"><g><g><path d="M24.375148046875,12.75L17.000078046875,12.75C14.652878046875,12.75,12.750078046875,14.6528,12.750078046875,17L12.750078046875,23C12.750078046875,24.1736,11.798688046875,25.125,10.625078046875,25.125C9.451468046875,25.125,8.500081046875,24.1736,8.500081046875,23L8.500081046875,17C8.500081046875,12.305579999999999,12.305658046875,8.5,17.000078046875,8.5L24.375148046875,8.5C25.548648046875,8.5,26.500148046875,9.451391,26.500148046875,10.625C26.500148046875,11.79861,25.548648046875,12.75,24.375148046875,12.75ZM59.500048046875,23C59.500048046875,24.1736,58.548648046875,25.125,57.375048046875,25.125C56.201548046875,25.125,55.250048046875,24.1736,55.250048046875,23L55.250048046875,17C55.250048046875,14.6528,53.347248046875,12.75,51.000048046875,12.75L43.625048046875,12.75C42.451448046875,12.75,41.500048046875,11.79861,41.500048046875,10.625C41.500048046875,9.451391,42.451448046875,8.5,43.625048046875,8.5L51.000048046875,8.5C55.694448046875,8.5,59.500048046875,12.305579999999999,59.500048046875,17L59.500048046875,23ZM58.083448046875,36.124700000000004L9.916748046875,36.124700000000004C8.743139046875,36.124700000000004,7.791748046875,35.1733,7.791748046875,33.999700000000004C7.791748046875,32.826,8.743139046875,31.8747,9.916748046875,31.8747L58.083448046875,31.8747C59.256948046875,31.8747,60.208448046875,32.826,60.208448046875,33.999700000000004C60.208448046875,35.1733,59.256948046875,36.124700000000004,58.083448046875,36.124700000000004ZM12.750078046875,50.9999C12.750078046875,53.3471,14.652878046875,55.2499,17.000078046875,55.2499L24.375148046875,55.2499C25.548648046875,55.2499,26.500148046875,56.2013,26.500148046875,57.3749C26.500148046875,58.5486,25.548648046875,59.4999,24.375148046875,59.4999L17.000078046875,59.4999C12.305658046875,59.4999,8.500081046875,55.6944,8.500081046875,50.9999L8.500081046875,44.9999C8.500081046875,43.8263,9.451468046875,42.8749,10.625078046875,42.8749C11.798688046875,42.8749,12.750078046875,43.8263,12.750078046875,44.9999L12.750078046875,50.9999ZM59.500048046875,50.9999C59.500048046875,55.6944,55.694448046875,59.4999,51.000048046875,59.4999L43.625048046875,59.4999C42.451448046875,59.4999,41.500048046875,58.5486,41.500048046875,57.3749C41.500048046875,56.2013,42.451448046875,55.2499,43.625048046875,55.2499L51.000048046875,55.2499C53.347248046875,55.2499,55.250048046875,53.3471,55.250048046875,50.9999L55.250048046875,44.9999C55.250048046875,43.8263,56.201548046875,42.8749,57.375048046875,42.8749C58.548648046875,42.8749,59.500048046875,43.8263,59.500048046875,44.9999L59.500048046875,50.9999Z" fill="#000000" fill-opacity="1"/></g></g></svg>